<?xml version="1.0" encoding="utf-8"?>
<svg width="40px" height="40px" viewbox="0 0 40 40" version="1.1" xmlns:xlink="http://www.w3.org/1999/xlink" xmlns="http://www.w3.org/2000/svg">
  <defs>
    <path d="M0 0L40 0L40 40L0 40L0 0Z" id="path_1" />
    <clipPath id="mask_1">
      <use xlink:href="#path_1" />
    </clipPath>
  </defs>
  <g id="basic--location-3">
    <g id="basic--location">
      <path d="M0 0L40 0L40 40L0 40L0 0Z" id="basic--location-(BackgroundMask)" fill="none" fill-rule="evenodd" stroke="none" />
      <g clip-path="url(#mask_1)">
        <path d="M11.6667 0C5.21667 0 0 5.21667 0 11.6667C0 20.4167 11.6667 30 11.6667 30C11.6667 30 23.3333 20.4167 23.3333 11.6667C23.3333 5.21667 18.1167 0 11.6667 0C5.21667 0 11.6667 0 11.6667 0ZM11.6667 16.6667C14.4281 16.6667 16.6667 14.4281 16.6667 11.6667C16.6667 8.90524 14.4281 6.66667 11.6667 6.66667C8.90524 6.66667 6.66667 8.90524 6.66667 11.6667C6.66667 14.4281 8.90524 16.6667 11.6667 16.6667C14.4281 16.6667 11.6667 16.6667 11.6667 16.6667Z" transform="translate(8.333333 5)" id="basic--location" fill="#6E768E" fill-rule="evenodd" stroke="#FFFFFF" stroke-width="1" />
      </g>
    </g>
  </g>
</svg>